# File created by Blade
# Date/Time:  Fri Jan 16 19:14:28 2015
# Frame Rate: 120.000 fps
#------------------------------------------------------
:FULLY-SPECIFIED
:DEGREES
1086
root 18.980914 35.729891 -21.522324 -171.486521 0.419679 -178.550268
Spine -17.901899 1.157194 0.202160
Head 8.565512 -2.841745 1.870238
LeftShoulder -9.994210 -36.356727 22.164181
LeftArm 2.028741 2.964847 -2.979288
LeftForeArm 18.986908 -0.000000 -2.131204
LeftHand -3.703330 -0.000000 -9.313485
LeftHandThumb1 -26.253704 0.000000 33.147579
RightShoulder -8.868740 2.453819 -12.052062
RightArm -0.048758 44.816883 9.529398
RightForeArm -40.064028 -0.000000 3.667857
RightHand -1.960843 -0.000000 1.032090
RightHandThumb1 -24.326973 -0.000000 -32.862282
LeftUpLeg -0.286077 8.531838 0.474986
LeftLeg -6.430521 -0.000000 0.000000
LeftFoot -20.034634 29.171455 -14.430951
LeftToeBase 24.399249 -0.000000 -0.000000
RightUpLeg -2.431806 -8.301067 0.671585
RightLeg -2.822503 -0.000000 0.000000
RightFoot -19.295302 -22.939435 17.891387
RightToeBase 23.693050 -0.000000 -0.000000
1087
root 18.982653 35.729351 -21.505448 -171.496865 0.418055 -178.565721
Spine -17.810876 1.167356 0.187030
Head 8.432433 -2.816576 1.840083
LeftShoulder -9.947784 -36.207342 21.986121
LeftArm 1.967226 2.921904 -3.176138
LeftForeArm 18.861903 -0.000000 -2.140537
LeftHand -3.763607 -0.000000 -9.187350
LeftHandThumb1 -26.253704 0.000000 33.147579
RightShoulder -8.853183 2.235424 -11.929420
RightArm 0.147526 44.817861 9.917697
RightForeArm -39.699034 -0.000000 3.676172
RightHand -2.058547 -0.000000 1.067114
RightHandThumb1 -24.326973 -0.000000 -32.862282
LeftUpLeg -0.323145 8.593802 0.456270
LeftLeg -6.396645 -0.000000 0.000000
LeftFoot -20.008195 29.128688 -14.377202
LeftToeBase 24.383378 -0.000000 -0.000000
RightUpLeg -2.437028 -8.310215 0.662464
RightLeg -2.846049 -0.000000 0.000000
RightFoot -19.271788 -22.956539 17.828190
RightToeBase 23.703017 -0.000000 -0.000000
1088
root 18.985181 35.728328 -21.487078 -171.500258 0.416147 -178.574036
Spine -17.721293 1.186861 0.177920
Head 8.301277 -2.781606 1.807731
LeftShoulder -9.912739 -36.091176 21.835957
LeftArm 1.911634 2.945779 -3.413888
LeftForeArm 18.823582 -0.000000 -2.127240
LeftHand -4.012670 -0.000000 -9.007546
LeftHandThumb1 -26.253704 0.000000 33.147579
RightShoulder -8.835854 2.061223 -11.820405
RightArm 0.350592 45.154294 10.319588
RightForeArm -39.931004 0.000000 3.635155
RightHand -2.183679 -0.000000 0.865793
RightHandThumb1 -24.326973 -0.000000 -32.862282
LeftUpLeg -0.336625 8.564863 0.448326
LeftLeg -6.424971 -0.000000 0.000000
LeftFoot -19.976035 29.178901 -14.339059
LeftToeBase 24.446916 -0.000000 -0.000000
RightUpLeg -2.448847 -8.294741 0.660982
RightLeg -2.868960 -0.000000 0.000000
RightFoot -19.259492 -22.978664 17.781108
RightToeBase 23.732877 -0.000000 -0.000000
1089
root 18.986945 35.727127 -21.469610 -171.514708 0.413731 -178.589284
Spine -17.612674 1.203656 0.160693
Head 8.151925 -2.795407 1.779000
LeftShoulder -9.885666 -36.016095 21.695231
LeftArm 1.832226 2.919318 -3.630392
LeftForeArm 18.848690 -0.000000 -2.108551
LeftHand -4.035920 0.000000 -8.943017
LeftHandThumb1 -26.253704 0.000000 33.147579
RightShoulder -8.811851 1.817604 -11.693768
RightArm 0.507213 45.398117 10.659485
RightForeArm -39.934193 -0.000000 3.620825
RightHand -2.074106 -0.000000 0.834874
RightHandThumb1 -24.326973 -0.000000 -32.862282
LeftUpLeg -0.347926 8.571833 0.433483
LeftLeg -6.436235 -0.000000 0.000000
LeftFoot -19.951227 29.186491 -14.307787
LeftToeBase 24.485067 -0.000000 -0.000000
RightUpLeg -2.444849 -8.298700 0.649793
RightLeg -2.903846 -0.000000 0.000000
RightFoot -19.225244 -23.000842 17.708194
RightToeBase 23.742288 -0.000000 -0.000000
1090
root 18.991033 35.726651 -21.454092 -171.537223 0.382305 -178.610244
Spine -17.506335 1.195993 0.131662
Head 8.032059 -2.781793 1.764140
LeftShoulder -9.824327 -35.909752 21.532569
LeftArm 1.756305 3.032361 -3.831600
LeftForeArm 18.656862 -0.000000 -2.081161
LeftHand -4.145571 0.000000 -8.874410
LeftHandThumb1 -26.253704 0.000000 33.147579
RightShoulder -8.778023 1.689929 -11.586381
RightArm 0.591601 45.410435 10.970635
RightForeArm -39.739547 0.000000 3.652240
RightHand -2.043043 -0.000000 0.718900
RightHandThumb1 -24.326973 -0.000000 -32.862282
LeftUpLeg -0.364047 8.619028 0.413295
LeftLeg -6.429087 -0.000000 0.000000
LeftFoot -19.914030 29.143532 -14.271184
LeftToeBase 24.490579 -0.000000 -0.000000
RightUpLeg -2.427820 -8.337536 0.641682
RightLeg -2.936388 -0.000000 0.000000
RightFoot -19.191192 -23.011760 17.632867
RightToeBase 23.711840 -0.000000 -0.000000
1091
root 18.992747 35.726520 -21.434638 -171.534583 0.373227 -178.622107
Spine -17.421725 1.201773 0.128906
Head 7.908942 -2.752546 1.717260
LeftShoulder -9.771171 -35.751938 21.357167
LeftArm 1.659781 3.036982 -4.029220
LeftForeArm 18.638329 -0.000000 -2.052777
LeftHand -4.171827 -0.000000 -8.730935
LeftHandThumb1 -26.253704 0.000000 33.147579
RightShoulder -8.680578 1.685972 -11.482789
RightArm 0.550607 45.348721 11.163294
RightForeArm -39.593438 -0.000000 3.757758
RightHand -2.186458 0.000000 0.702867
RightHandThumb1 -24.326973 -0.000000 -32.862282
LeftUpLeg -0.407016 8.643660 0.396942
LeftLeg -6.419419 -0.000000 0.000000
LeftFoot -19.872057 29.133921 -14.218120
LeftToeBase 24.479663 -0.000000 -0.000000
RightUpLeg -2.452253 -8.320373 0.636755
RightLeg -2.952506 -0.000000 0.000000
RightFoot -19.175901 -23.047190 17.592288
RightToeBase 23.743546 -0.000000 -0.000000
1092
root 18.994084 35.726012 -21.417981 -171.563454 0.355882 -178.621272
Spine -17.294774 1.208905 0.155630
Head 7.770667 -2.720167 1.634807
LeftShoulder -9.724987 -35.604471 21.159908
LeftArm 1.589972 3.080253 -4.213646
LeftForeArm 18.470874 -0.000000 -2.059580
LeftHand -4.190227 0.000000 -8.621794
LeftHandThumb1 -26.253704 0.000000 33.147579
RightShoulder -8.623796 1.582665 -11.372353
RightArm 0.641655 45.490312 11.410548
RightForeArm -39.556706 -0.000000 3.774529
RightHand -2.252947 -0.000000 0.627583
RightHandThumb1 -24.326973 -0.000000 -32.862282
LeftUpLeg -0.387692 8.587675 0.405176
LeftLeg -6.456265 -0.000000 0.000000
LeftFoot -19.856005 29.185516 -14.208221
LeftToeBase 24.529460 -0.000000 -0.000000
RightUpLeg -2.439832 -8.332703 0.639858
RightLeg -2.966388 -0.000000 0.000000
RightFoot -19.159701 -23.044038 17.576487
RightToeBase 23.711017 -0.000000 -0.000000
1093
root 18.996026 35.725165 -21.400436 -171.570769 0.342233 -178.635335
Spine -17.196306 1.225407 0.147539
Head 7.641081 -2.683176 1.586607
LeftShoulder -9.675330 -35.437937 20.970698
LeftArm 1.541541 3.007098 -4.397661
LeftForeArm 18.454745 -0.000000 -2.069552
LeftHand -4.298339 -0.000000 -8.512399
LeftHandThumb1 -26.253704 0.000000 33.147579
RightShoulder -8.572527 1.441098 -11.263736
RightArm 0.707053 45.649525 11.665638
RightForeArm -39.607915 0.000000 3.825753
RightHand -2.258889 -0.000000 0.571873
RightHandThumb1 -24.326973 -0.000000 -32.862282
LeftUpLeg -0.410281 8.586236 0.392498
LeftLeg -6.458729 -0.000000 0.000000
LeftFoot -19.819096 29.185999 -14.170004
LeftToeBase 24.506279 -0.000000 -0.000000
RightUpLeg -2.446298 -8.330781 0.630965
RightLeg -2.988820 -0.000000 0.000000
RightFoot -19.133632 -23.079545 17.512308
RightToeBase 23.796533 -0.000000 -0.000000
1094
root 18.996490 35.724335 -21.381408 -171.572037 0.348147 -178.650027
Spine -17.106238 1.269049 0.126286
Head 7.522063 -2.683532 1.564787
LeftShoulder -9.630443 -35.271626 20.798875
LeftArm 1.520831 2.992746 -4.601493
LeftForeArm 18.329072 -0.000000 -2.112574
LeftHand -4.248760 -0.000000 -8.445639
LeftHandThumb1 -26.253704 0.000000 33.147579
RightShoulder -8.527409 1.290916 -11.123155
RightArm 0.805127 45.695789 11.888704
RightForeArm -39.404080 -0.000000 3.819310
RightHand -2.268470 -0.000000 0.377952
RightHandThumb1 -24.326973 -0.000000 -32.862282
LeftUpLeg -0.428556 8.554257 0.379473
LeftLeg -6.477581 -0.000000 0.000000
LeftFoot -19.791687 29.215615 -14.143484
LeftToeBase 24.552764 -0.000000 -0.000000
RightUpLeg -2.470396 -8.309756 0.617100
RightLeg -3.000865 -0.000000 0.000000
RightFoot -19.116401 -23.106748 17.451258
RightToeBase 23.815570 -0.000000 -0.000000
1095
root 18.999191 35.723980 -21.361298 -171.583936 0.328284 -178.662755
Spine -16.991240 1.288492 0.109949
Head 7.388991 -2.662929 1.539369
LeftShoulder -9.577048 -35.164302 20.609432
LeftArm 1.482393 3.025225 -4.770305
LeftForeArm 18.242564 -0.000000 -2.130888
LeftHand -4.212513 -0.000000 -8.481445
LeftHandThumb1 -26.253704 0.000000 33.147579
RightShoulder -8.472195 1.221696 -10.993411
RightArm 0.806578 45.633302 12.063137
RightForeArm -39.322100 -0.000000 3.924000
RightHand -2.299105 -0.000000 0.306293
RightHandThumb1 -24.326973 -0.000000 -32.862282
LeftUpLeg -0.462115 8.543633 0.370445
LeftLeg -6.457609 -0.000000 0.000000
LeftFoot -19.764495 29.222017 -14.097582
LeftToeBase 24.524167 -0.000000 -0.000000
RightUpLeg -2.479853 -8.319058 0.612878
RightLeg -3.017576 -0.000000 0.000000
RightFoot -19.087461 -23.122970 17.381501
RightToeBase 23.821740 -0.000000 -0.000000
1096
root 19.002919 35.723072 -21.344137 -171.590651 0.306487 -178.669753
Spine -16.895075 1.300090 0.103091
Head 7.263982 -2.622559 1.521466
LeftShoulder -9.538557 -35.073220 20.442052
LeftArm 1.423639 3.036315 -4.948420
LeftForeArm 18.167876 0.000000 -2.118439
LeftHand -4.278049 -0.000000 -8.276572
LeftHandThumb1 -26.253704 0.000000 33.147579
RightShoulder -8.378741 1.153978 -10.886665
RightArm 0.751235 45.615794 12.214442
RightForeArm -39.291003 -0.000000 4.024574
RightHand -2.320160 0.000000 0.230133
RightHandThumb1 -24.326973 -0.000000 -32.862282
LeftUpLeg -0.493128 8.554065 0.366792
LeftLeg -6.447585 -0.000000 0.000000
LeftFoot -19.733744 29.210059 -14.055317
LeftToeBase 24.539134 -0.000000 -0.000000
RightUpLeg -2.493169 -8.347026 0.617180
RightLeg -3.029787 -0.000000 0.000000
RightFoot -19.072909 -23.129989 17.343709
RightToeBase 23.869128 -0.000000 -0.000000
1097
root 19.004997 35.722965 -21.328621 -171.611169 0.280591 -178.674533
Spine -16.779915 1.304164 0.102760
Head 7.118980 -2.576507 1.539538
LeftShoulder -9.538336 -34.991701 20.304212
LeftArm 1.381670 3.066914 -5.147573
LeftForeArm 18.059426 -0.000000 -2.128808
LeftHand -4.185742 -0.000000 -8.225442
LeftHandThumb1 -26.253704 0.000000 33.147579
RightShoulder -8.281809 1.254334 -10.793642
RightArm 0.620877 45.364523 12.285548
RightForeArm -39.134386 -0.000000 4.139675
RightHand -2.272699 -0.000000 0.147066
RightHandThumb1 -24.326973 -0.000000 -32.862282
LeftUpLeg -0.504719 8.589207 0.364434
LeftLeg -6.445970 -0.000000 0.000000
LeftFoot -19.702921 29.163017 -14.019551
LeftToeBase 24.573562 -0.000000 -0.000000
RightUpLeg -2.483876 -8.379065 0.618809
RightLeg -3.052238 -0.000000 0.000000
RightFoot -19.043388 -23.131578 17.293917
RightToeBase 23.860701 -0.000000 -0.000000
